<svg width="6" height="10" viewBox="0 0 6 10" fill="none" xmlns="http://www.w3.org/2000/svg">
<path d="M0.741398 8.23365L3.97473 5.00032L0.741398 1.76698C0.664246 1.68983 0.603046 1.59824 0.561292 1.49744C0.519538 1.39663 0.498047 1.28859 0.498047 1.17948C0.498047 1.07037 0.519538 0.962334 0.561292 0.861531C0.603046 0.760727 0.664246 0.669135 0.741398 0.591983C0.818549 0.514832 0.910141 0.453632 1.01094 0.411878C1.11175 0.370124 1.21979 0.348633 1.3289 0.348633C1.43801 0.348633 1.54605 0.370124 1.64685 0.411878C1.74765 0.453632 1.83925 0.514832 1.9164 0.591983L5.7414 4.41698C6.0664 4.74198 6.0664 5.26698 5.7414 5.59198L1.9164 9.41698C1.8393 9.49424 1.74773 9.55553 1.64692 9.59734C1.54611 9.63916 1.43804 9.66069 1.3289 9.66069C1.21976 9.66069 1.11169 9.63916 1.01088 9.59734C0.910066 9.55553 0.818492 9.49424 0.741398 9.41698C0.424731 9.09198 0.416398 8.55865 0.741398 8.23365Z" fill="#111111"/>
</svg>
