<?xml version="1.0" standalone="no"?>
<!DOCTYPE svg PUBLIC "-//W3C//DTD SVG 20010904//EN"
 "http://www.w3.org/TR/2001/REC-SVG-20010904/DTD/svg10.dtd">
<svg version="1.0" xmlns="http://www.w3.org/2000/svg"
 width="204.000000pt" height="192.000000pt" viewBox="0 0 204.000000 192.000000"
 preserveAspectRatio="xMidYMid meet">

<g transform="translate(0.000000,192.000000) scale(0.100000,-0.100000)"
fill="#000000" stroke="none">
<path d="M145 1838 c-32 -17 -75 -61 -93 -93 -15 -26 -17 -82 -20 -464 -2
-296 1 -450 8 -488 15 -72 66 -125 139 -144 l51 -13 0 -122 c0 -103 2 -123 16
-128 12 -5 48 24 125 101 l109 107 0 -62 c0 -101 53 -178 138 -202 23 -6 202
-10 467 -10 l430 0 125 -125 c86 -87 132 -125 147 -125 23 0 23 2 23 123 l0
123 51 13 c73 19 124 72 139 144 17 84 10 913 -9 947 -17 32 -60 78 -86 93
-12 7 -86 14 -180 17 l-160 5 -5 97 c-5 87 -8 100 -35 139 -59 84 -18 79 -730
79 -440 -1 -636 -4 -650 -12z m1285 -61 c13 -7 35 -28 47 -46 l23 -34 0 -453
0 -452 -27 -33 c-50 -59 -50 -59 -535 -59 l-443 0 -102 -102 -103 -103 0 87
c0 110 -3 118 -49 118 -46 0 -98 27 -125 63 -21 28 -21 39 -21 475 0 491 1
497 59 533 29 18 62 19 641 19 468 0 616 -3 635 -13z m450 -322 c16 -9 38 -30
47 -48 16 -29 18 -71 18 -482 0 -414 -1 -453 -18 -478 -24 -37 -59 -58 -109
-64 -65 -8 -68 -14 -68 -117 l0 -91 -103 103 -102 102 -443 0 c-485 0 -485 0
-535 59 -25 30 -27 40 -27 117 l0 84 423 0 c259 0 436 4 459 10 48 14 94 53
118 101 19 36 20 60 20 379 l0 340 145 0 c111 0 153 -4 175 -15z"/>
<path d="M413 1346 c-21 -19 -28 -33 -28 -64 0 -46 17 -70 62 -88 89 -38 165
81 97 150 -35 35 -92 36 -131 2z m92 -66 c0 -30 -35 -40 -55 -15 -10 12 -10
18 0 30 20 25 55 15 55 -15z"/>
<path d="M747 1359 c-27 -16 -49 -67 -42 -98 11 -53 73 -89 120 -71 67 25 87
105 39 154 -28 28 -83 35 -117 15z m78 -79 c0 -30 -35 -40 -55 -15 -10 12 -10
18 0 30 20 25 55 15 55 -15z"/>
<path d="M1053 1346 c-61 -53 -21 -157 62 -159 30 -1 43 5 66 31 39 43 38 84
0 123 -38 37 -88 39 -128 5z m91 -51 c9 -24 -4 -45 -29 -45 -25 0 -38 21 -29
45 4 8 16 15 29 15 13 0 25 -7 29 -15z"/>
</g>
</svg>
