<svg width="24" height="24" viewBox="0 0 24 24" fill="none" xmlns="http://www.w3.org/2000/svg">
<path d="M14.0005 20H14.7505V19.25H14.0005V20ZM10.0005 20V19.25H9.25054V20H10.0005ZM18.0005 16H17.2505V16.3107L17.4702 16.5303L18.0005 16ZM13.5005 4.68H12.7505V5.27259L13.3271 5.40966L13.5005 4.68ZM10.5005 4.68L10.6735 5.4098L11.2505 5.27306V4.68H10.5005ZM6.00054 16L6.53087 16.5303L6.75054 16.3107V16H6.00054ZM12.0005 22.75C13.5148 22.75 14.7505 21.5142 14.7505 20H13.2505C13.2505 20.6858 12.6863 21.25 12.0005 21.25V22.75ZM14.0005 19.25H10.0005V20.75H14.0005V19.25ZM9.25054 20C9.25054 21.5118 10.4739 22.75 12.0005 22.75V21.25C11.3072 21.25 10.7505 20.6882 10.7505 20H9.25054ZM18.7505 16V11H17.2505V16H18.7505ZM18.7505 11C18.7505 7.66778 16.9484 4.72885 13.674 3.95034L13.3271 5.40966C15.7727 5.99115 17.2505 8.19222 17.2505 11H18.7505ZM14.2505 4.68V4H12.7505V4.68H14.2505ZM14.2505 4C14.2505 2.75579 13.2448 1.75 12.0005 1.75V3.25C12.4163 3.25 12.7505 3.58421 12.7505 4H14.2505ZM12.0005 1.75C10.7563 1.75 9.75054 2.75579 9.75054 4H11.2505C11.2505 3.58421 11.5848 3.25 12.0005 3.25V1.75ZM9.75054 4V4.68H11.2505V4H9.75054ZM10.3276 3.9502C7.04226 4.72862 5.25054 7.65844 5.25054 11H6.75054C6.75054 8.18156 8.21882 5.99138 10.6735 5.4098L10.3276 3.9502ZM5.25054 11V16H6.75054V11H5.25054ZM5.47021 15.4697L4.18021 16.7597L5.24087 17.8203L6.53087 16.5303L5.47021 15.4697ZM4.18021 16.7597C3.08661 17.8533 3.83983 19.75 5.41054 19.75V18.25C5.20125 18.25 5.07447 17.9867 5.24087 17.8203L4.18021 16.7597ZM5.41054 19.75H18.5805V18.25H5.41054V19.75ZM18.5805 19.75C20.1352 19.75 20.9258 17.8646 19.8209 16.7597L18.7602 17.8203C18.9153 17.9754 18.8058 18.25 18.5805 18.25V19.75ZM19.8209 16.7597L18.5309 15.4697L17.4702 16.5303L18.7602 17.8203L19.8209 16.7597Z" fill="#111111"/>
</svg>
