<svg width="14" height="12" viewBox="0 0 14 12" fill="none" xmlns="http://www.w3.org/2000/svg">
<path fill-rule="evenodd" clip-rule="evenodd" d="M4.46377 3.15945C4.46377 2.15092 5.28134 1.33336 6.28986 1.33336C7.29837 1.33336 8.11594 2.15092 8.11594 3.15945C8.11594 4.16796 7.29837 4.98553 6.28986 4.98553C5.28134 4.98553 4.46377 4.16796 4.46377 3.15945ZM6.28986 0.115967C4.60899 0.115967 3.24638 1.47858 3.24638 3.15945C3.24638 4.84031 4.60899 6.20292 6.28986 6.20292C7.97072 6.20292 9.33333 4.84031 9.33333 3.15945C9.33333 1.47858 7.97072 0.115967 6.28986 0.115967ZM1.21739 11.2754C1.21739 10.6983 1.34702 10.2799 1.55059 9.96598C1.75479 9.65104 2.06229 9.39666 2.49035 9.1959C3.37356 8.78168 4.67516 8.63771 6.28986 8.63771C7.90455 8.63771 9.20615 8.78168 10.0894 9.1959C10.5174 9.39666 10.8249 9.65104 11.0291 9.96598C11.2327 10.2799 11.3623 10.6983 11.3623 11.2754C11.3623 11.6116 11.6348 11.8841 11.971 11.8841C12.3072 11.8841 12.5797 11.6116 12.5797 11.2754C12.5797 10.5093 12.405 9.85026 12.0506 9.30367C11.6968 8.75807 11.1927 8.36875 10.6063 8.09371C9.46052 7.55634 7.92154 7.42031 6.28986 7.42031C4.65817 7.42031 3.11919 7.55634 1.97342 8.09371C1.38698 8.36875 0.882888 8.75807 0.529124 9.30367C0.174721 9.85026 0 10.5093 0 11.2754C0 11.6116 0.272522 11.8841 0.608696 11.8841C0.944869 11.8841 1.21739 11.6116 1.21739 11.2754ZM11.971 3.56524C12.3072 3.56524 12.5797 3.83776 12.5797 4.17394V4.98553H13.3913C13.7275 4.98553 14 5.25805 14 5.59423C14 5.9304 13.7275 6.20292 13.3913 6.20292H12.5797V7.01452C12.5797 7.35069 12.3072 7.62321 11.971 7.62321C11.6348 7.62321 11.3623 7.35069 11.3623 7.01452V6.20292H10.5507C10.2146 6.20292 9.94203 5.9304 9.94203 5.59423C9.94203 5.25805 10.2146 4.98553 10.5507 4.98553H11.3623V4.17394C11.3623 3.83776 11.6348 3.56524 11.971 3.56524Z" fill="black"/>
</svg>
