<svg width="32" height="32" viewBox="0 0 32 32" fill="none" xmlns="http://www.w3.org/2000/svg">
<rect width="32" height="32" rx="16" fill="white"/>
<rect width="32" height="32" rx="16" fill="#7F56D9" fill-opacity="0.1"/>
<path d="M13.381 21V11.5455H16.751C17.4866 11.5455 18.096 11.6793 18.5791 11.9471C19.0623 12.2148 19.424 12.5811 19.664 13.0458C19.9041 13.5075 20.0241 14.0276 20.0241 14.6062C20.0241 15.1879 19.9025 15.7111 19.6594 16.1758C19.4193 16.6374 19.0562 17.0037 18.5699 17.2745C18.0867 17.5423 17.4789 17.6761 16.7464 17.6761H14.4289V16.4666H16.6171C17.0819 16.4666 17.4589 16.3866 17.7482 16.2266C18.0375 16.0634 18.2498 15.8419 18.3853 15.5618C18.5207 15.2817 18.5884 14.9632 18.5884 14.6062C18.5884 14.2492 18.5207 13.9322 18.3853 13.6552C18.2498 13.3782 18.0359 13.1612 17.7436 13.0043C17.4543 12.8473 17.0726 12.7688 16.5987 12.7688H14.8075V21H13.381Z" fill="#7F56D9"/>
</svg>
