<svg width="24" height="24" viewBox="0 0 24 24" fill="none" xmlns="http://www.w3.org/2000/svg">
<path fill-rule="evenodd" clip-rule="evenodd" d="M6.00003 13C5.45003 13 5.00003 13.45 5.00003 14C5.00003 14.55 5.45003 15 6.00003 15C6.55003 15 7.00003 14.55 7.00003 14C7.00003 13.45 6.55003 13 6.00003 13ZM6.00003 17C5.45003 17 5.00003 17.45 5.00003 18C5.00003 18.55 5.45003 19 6.00003 19C6.55003 19 7.00003 18.55 7.00003 18C7.00003 17.45 6.55003 17 6.00003 17ZM6.00003 9.00002C5.45003 9.00002 5.00003 9.45002 5.00003 10C5.00003 10.55 5.45003 11 6.00003 11C6.55003 11 7.00003 10.55 7.00003 10C7.00003 9.45002 6.55003 9.00002 6.00003 9.00002ZM3 9.49998C2.72 9.49998 2.5 9.71998 2.5 9.99998C2.5 10.28 2.72 10.5 3 10.5C3.28 10.5 3.5 10.28 3.5 9.99998C3.5 9.71998 3.28 9.49998 3 9.49998ZM6.00003 4.99998C5.45003 4.99998 5.00003 5.44998 5.00003 5.99998C5.00003 6.54998 5.45003 6.99998 6.00003 6.99998C6.55003 6.99998 7.00003 6.54998 7.00003 5.99998C7.00003 5.44998 6.55003 4.99998 6.00003 4.99998ZM21 10.5C21.28 10.5 21.5 10.28 21.5 9.99998C21.5 9.71998 21.28 9.49998 21 9.49998C20.72 9.49998 20.5 9.71998 20.5 9.99998C20.5 10.28 20.72 10.5 21 10.5ZM14 6.99998C14.55 6.99998 15 6.54998 15 5.99998C15 5.44998 14.55 4.99998 14 4.99998C13.45 4.99998 13 5.44998 13 5.99998C13 6.54998 13.45 6.99998 14 6.99998ZM14 3.5C14.28 3.5 14.5 3.28 14.5 3C14.5 2.72 14.28 2.5 14 2.5C13.72 2.5 13.5 2.72 13.5 3C13.5 3.28 13.72 3.5 14 3.5ZM3 13.5C2.72 13.5 2.5 13.72 2.5 14C2.5 14.28 2.72 14.5 3 14.5C3.28 14.5 3.5 14.28 3.5 14C3.5 13.72 3.28 13.5 3 13.5ZM10 20.5C9.72003 20.5 9.50003 20.72 9.50003 21C9.50003 21.28 9.72003 21.5 10 21.5C10.28 21.5 10.5 21.28 10.5 21C10.5 20.72 10.28 20.5 10 20.5ZM10 3.5C10.28 3.5 10.5 3.28 10.5 3C10.5 2.72 10.28 2.5 10 2.5C9.72003 2.5 9.50003 2.72 9.50003 3C9.50003 3.28 9.72003 3.5 10 3.5ZM9.99997 6.99998C10.55 6.99998 11 6.54998 11 5.99998C11 5.44998 10.55 4.99998 9.99997 4.99998C9.44997 4.99998 8.99997 5.44998 8.99997 5.99998C8.99997 6.54998 9.44997 6.99998 9.99997 6.99998ZM10 12.5C9.17 12.5 8.5 13.17 8.5 14C8.5 14.83 9.17 15.5 10 15.5C10.83 15.5 11.5 14.83 11.5 14C11.5 13.17 10.83 12.5 10 12.5ZM18 13C17.45 13 17 13.45 17 14C17 14.55 17.45 15 18 15C18.55 15 19 14.55 19 14C19 13.45 18.55 13 18 13ZM18 17C17.45 17 17 17.45 17 18C17 18.55 17.45 19 18 19C18.55 19 19 18.55 19 18C19 17.45 18.55 17 18 17ZM18 9.00002C17.45 9.00002 17 9.45002 17 10C17 10.55 17.45 11 18 11C18.55 11 19 10.55 19 10C19 9.45002 18.55 9.00002 18 9.00002ZM18 4.99998C17.45 4.99998 17 5.44998 17 5.99998C17 6.54998 17.45 6.99998 18 6.99998C18.55 6.99998 19 6.54998 19 5.99998C19 5.44998 18.55 4.99998 18 4.99998ZM21 13.5C20.72 13.5 20.5 13.72 20.5 14C20.5 14.28 20.72 14.5 21 14.5C21.28 14.5 21.5 14.28 21.5 14C21.5 13.72 21.28 13.5 21 13.5ZM14 17C13.45 17 13 17.45 13 18C13 18.55 13.45 19 14 19C14.55 19 15 18.55 15 18C15 17.45 14.55 17 14 17ZM14 20.5C13.72 20.5 13.5 20.72 13.5 21C13.5 21.28 13.72 21.5 14 21.5C14.28 21.5 14.5 21.28 14.5 21C14.5 20.72 14.28 20.5 14 20.5ZM10 8.5C9.17 8.5 8.5 9.17 8.5 10C8.5 10.83 9.17 11.5 10 11.5C10.83 11.5 11.5 10.83 11.5 10C11.5 9.17 10.83 8.5 10 8.5ZM9.99997 17C9.44997 17 8.99997 17.45 8.99997 18C8.99997 18.55 9.44997 19 9.99997 19C10.55 19 11 18.55 11 18C11 17.45 10.55 17 9.99997 17ZM14 12.5C13.17 12.5 12.5 13.17 12.5 14C12.5 14.83 13.17 15.5 14 15.5C14.83 15.5 15.5 14.83 15.5 14C15.5 13.17 14.83 12.5 14 12.5ZM14 8.5C13.17 8.5 12.5 9.17 12.5 10C12.5 10.83 13.17 11.5 14 11.5C14.83 11.5 15.5 10.83 15.5 10C15.5 9.17 14.83 8.5 14 8.5Z" />
</svg>
