<svg width="17" height="17" viewBox="0 0 17 17" fill="none" xmlns="http://www.w3.org/2000/svg">
<g clip-path="url(#clip0_2017_2012)">
<path d="M15.9141 9.14844L16.8672 3.92188C16.8838 3.83211 16.8798 3.73973 16.8554 3.65175C16.8311 3.56377 16.787 3.48249 16.7266 3.41406C16.6688 3.34342 16.5961 3.28646 16.5137 3.24728C16.4313 3.20811 16.3412 3.18769 16.25 3.1875H3.64844L3.26562 1.08594C3.21275 0.79902 3.06117 0.539636 2.83716 0.352722C2.61315 0.165808 2.33081 0.0631382 2.03906 0.0625H0.625C0.45924 0.0625 0.300268 0.128348 0.183058 0.245558C0.065848 0.362768 0 0.52174 0 0.6875C0 0.85326 0.065848 1.01223 0.183058 1.12944C0.300268 1.24665 0.45924 1.3125 0.625 1.3125H2.03906L4.17969 13.1094C3.87449 13.3782 3.65027 13.7268 3.53223 14.116C3.41418 14.5052 3.40698 14.9196 3.51143 15.3127C3.61588 15.7058 3.82785 16.0619 4.12353 16.3412C4.41921 16.6205 4.78689 16.8118 5.18528 16.8936C5.58367 16.9755 5.99699 16.9447 6.37883 16.8046C6.76067 16.6646 7.0959 16.4208 7.34688 16.1008C7.59787 15.7808 7.75465 15.3971 7.79964 14.9929C7.84463 14.5886 7.77604 14.1799 7.60156 13.8125H11.7734C11.5703 14.2408 11.5118 14.7234 11.6066 15.1878C11.7015 15.6522 11.9446 16.0732 12.2994 16.3875C12.6542 16.7018 13.1015 16.8923 13.574 16.9304C14.0464 16.9685 14.5185 16.8522 14.9191 16.5988C15.3197 16.3455 15.6271 15.9689 15.7952 15.5257C15.9633 15.0825 15.9829 14.5967 15.851 14.1414C15.7191 13.6862 15.443 13.286 15.0641 13.0013C14.6851 12.7165 14.224 12.5625 13.75 12.5625H5.35156L5.00781 10.6875H14.0703C14.5092 10.6873 14.934 10.5331 15.2709 10.2519C15.6079 9.97069 15.8354 9.58019 15.9141 9.14844ZM6.5625 14.75C6.5625 14.9354 6.50752 15.1167 6.4045 15.2708C6.30149 15.425 6.15507 15.5452 5.98377 15.6161C5.81246 15.6871 5.62396 15.7057 5.4421 15.6695C5.26025 15.6333 5.0932 15.544 4.96209 15.4129C4.83098 15.2818 4.74169 15.1148 4.70551 14.9329C4.66934 14.751 4.68791 14.5625 4.75886 14.3912C4.82982 14.2199 4.94998 14.0735 5.10415 13.9705C5.25832 13.8675 5.43958 13.8125 5.625 13.8125C5.87364 13.8125 6.1121 13.9113 6.28791 14.0871C6.46373 14.2629 6.5625 14.5014 6.5625 14.75ZM14.6875 14.75C14.6875 14.9354 14.6325 15.1167 14.5295 15.2708C14.4265 15.425 14.2801 15.5452 14.1088 15.6161C13.9375 15.6871 13.749 15.7057 13.5671 15.6695C13.3852 15.6333 13.2182 15.544 13.0871 15.4129C12.956 15.2818 12.8667 15.1148 12.8305 14.9329C12.7943 14.751 12.8129 14.5625 12.8839 14.3912C12.9548 14.2199 13.075 14.0735 13.2292 13.9705C13.3833 13.8675 13.5646 13.8125 13.75 13.8125C13.9986 13.8125 14.2371 13.9113 14.4129 14.0871C14.5887 14.2629 14.6875 14.5014 14.6875 14.75ZM3.875 4.4375H15.5L14.6875 8.92188C14.6618 9.06671 14.5857 9.19783 14.4729 9.29214C14.36 9.38646 14.2174 9.43793 14.0703 9.4375H4.78125L3.875 4.4375Z" fill="#111111"/>
</g>
<defs>
<clipPath id="clip0_2017_2012">
<rect width="16.8773" height="16.8759" fill="white" transform="translate(0 0.0625)"/>
</clipPath>
</defs>
</svg>
