<svg width="15" height="15" viewBox="0 0 15 15" fill="none" xmlns="http://www.w3.org/2000/svg">
<path fill-rule="evenodd" clip-rule="evenodd" d="M10.9172 9.66621H10.2589L10.0255 9.44121C11.0255 8.27454 11.5422 6.68288 11.2589 4.99121C10.8672 2.67454 8.93386 0.824545 6.60052 0.541211C3.07552 0.107878 0.108855 3.07454 0.542188 6.59954C0.825521 8.93288 2.67552 10.8662 4.99219 11.2579C6.68386 11.5412 8.27552 11.0245 9.44219 10.0245L9.66719 10.2579V10.9162L13.2089 14.4579C13.5505 14.7995 14.1089 14.7995 14.4505 14.4579C14.7922 14.1162 14.7922 13.5579 14.4505 13.2162L10.9172 9.66621ZM5.91719 9.66621C3.84219 9.66621 2.16719 7.99121 2.16719 5.91621C2.16719 3.84121 3.84219 2.16621 5.91719 2.16621C7.99219 2.16621 9.66719 3.84121 9.66719 5.91621C9.66719 7.99121 7.99219 9.66621 5.91719 9.66621Z" fill="#969696"/>
</svg>
